<svg version="1.1" xmlns="http://www.w3.org/2000/svg" width="40" height="40">
<path d="M0 0 C13.2 0 26.4 0 40 0 C40 13.2 40 26.4 40 40 C26.8 40 13.6 40 0 40 C0 26.8 0 13.6 0 0 Z " fill="#FBFEFB" transform="translate(0,0)"/>
<path d="M0 0 C1.5754001 4.72620031 -0.80476668 8.18736167 -2.6875 12.625 C-3.04005859 13.50929688 -3.39261719 14.39359375 -3.75585938 15.3046875 C-4.28469727 16.56539062 -4.28469727 16.56539062 -4.82421875 17.8515625 C-5.14479248 18.62322754 -5.46536621 19.39489258 -5.7956543 20.18994141 C-7 22 -7 22 -11 23 C-12.98 19.37 -14.96 15.74 -17 12 C-19.31 15.96 -21.62 19.92 -24 24 C-25.14680101 20.55959697 -24.87124738 19.99729616 -23.56640625 16.76953125 C-23.24736328 15.96708984 -22.92832031 15.16464844 -22.59960938 14.33789062 C-22.08624023 13.08782227 -22.08624023 13.08782227 -21.5625 11.8125 C-21.22412109 10.96751953 -20.88574219 10.12253906 -20.53710938 9.25195312 C-19.69974448 7.16443784 -18.85379803 5.08083591 -18 3 C-17.34 3.33 -16.68 3.66 -16 4 C-15.01 3.67 -14.02 3.34 -13 3 C-11.35 6.3 -9.7 9.6 -8 13 C-4.48901975 8.98745115 -2.23462006 4.79016959 0 0 Z " fill="#2DCD2C" transform="translate(32,7)"/>
<path d="M0 0 C2.8301913 3.38263104 4.5032781 7.09118459 6.1875 11.125 C6.59645508 12.07439453 6.59645508 12.07439453 7.01367188 13.04296875 C9 17.7324953 9 17.7324953 9 20 C6 19 6 19 4.61328125 16.71484375 C3.40885417 14.14322917 2.20442708 11.57161458 1 9 C-1.31 12.96 -3.62 16.92 -6 21 C-7.14680101 17.55959697 -6.87124738 16.99729616 -5.56640625 13.76953125 C-5.24736328 12.96708984 -4.92832031 12.16464844 -4.59960938 11.33789062 C-4.08624023 10.08782227 -4.08624023 10.08782227 -3.5625 8.8125 C-3.22412109 7.96751953 -2.88574219 7.12253906 -2.53710938 6.25195312 C-1.69974448 4.16443784 -0.85379803 2.08083591 0 0 Z " fill="#0EC60D" transform="translate(14,10)"/>
</svg>
