<svg version="1.1" xmlns="http://www.w3.org/2000/svg" width="124" height="24">
<path d="M0 0 C0.99 0 1.98 0 3 0 C2.31477461 3.02468175 1.37595057 5.82290798 0.1875 8.6875 C-0.12832031 9.47511719 -0.44414062 10.26273438 -0.76953125 11.07421875 C-2 13 -2 13 -4.13671875 13.76953125 C-5.05904297 13.88361328 -5.05904297 13.88361328 -6 14 C-6.99 12.68 -7.98 11.36 -9 10 C-9.61875 10.99 -10.2375 11.98 -10.875 13 C-11.57625 13.99 -12.2775 14.98 -13 16 C-13.66 16 -14.32 16 -15 16 C-14.39254603 11.14036821 -12.27241033 7.2594482 -10 3 C-6 3 -6 3 -4.25 4.5 C-3.63125 5.2425 -3.63125 5.2425 -3 6 C-2.01 4.02 -1.02 2.04 0 0 Z " fill="#03C700" transform="translate(16,4)"/>
<path d="M0 0 C0.99 0 1.98 0 3 0 C4.6875 2 4.6875 2 6 4 C6.33 2.68 6.66 1.36 7 0 C7.66 0 8.32 0 9 0 C9 3.3 9 6.6 9 10 C5 8 5 8 4 6 C3.67 7.32 3.34 8.64 3 10 C2.01 10 1.02 10 0 10 C0 6.7 0 3.4 0 0 Z " fill="#000000" transform="translate(21,7)"/>
<path d="M0 0 C2.64 0 5.28 0 8 0 C8 0.66 8 1.32 8 2 C6.35 2 4.7 2 3 2 C3 2.66 3 3.32 3 4 C4.32 4 5.64 4 7 4 C7 4.66 7 5.32 7 6 C5.68 6 4.36 6 3 6 C3 6.66 3 7.32 3 8 C4.65 8 6.3 8 8 8 C8 8.66 8 9.32 8 10 C5.36 10 2.72 10 0 10 C0 6.7 0 3.4 0 0 Z " fill="#000000" transform="translate(114,7)"/>
<path d="M0 0 C2.64 0 5.28 0 8 0 C8 0.66 8 1.32 8 2 C6.35 2 4.7 2 3 2 C3 2.66 3 3.32 3 4 C4.32 4 5.64 4 7 4 C7 4.66 7 5.32 7 6 C5.68 6 4.36 6 3 6 C3 6.66 3 7.32 3 8 C4.65 8 6.3 8 8 8 C8 8.66 8 9.32 8 10 C5.36 10 2.72 10 0 10 C0 6.7 0 3.4 0 0 Z " fill="#000000" transform="translate(86,7)"/>
<path d="M0 0 C0.99 0 1.98 0 3 0 C3 1.32 3 2.64 3 4 C4.32 4 5.64 4 7 4 C7 2.68 7 1.36 7 0 C7.66 0 8.32 0 9 0 C9 3.3 9 6.6 9 10 C8.34 10 7.68 10 7 10 C7 8.68 7 7.36 7 6 C5.68 6 4.36 6 3 6 C3 7.32 3 8.64 3 10 C2.01 10 1.02 10 0 10 C0 6.7 0 3.4 0 0 Z " fill="#000000" transform="translate(69,7)"/>
<path d="M0 0 C2.64 0 5.28 0 8 0 C8 0.66 8 1.32 8 2 C6.35 2 4.7 2 3 2 C3 2.66 3 3.32 3 4 C4.32 4 5.64 4 7 4 C7 4.66 7 5.32 7 6 C5.68 6 4.36 6 3 6 C3 6.66 3 7.32 3 8 C4.65 8 6.3 8 8 8 C8 8.66 8 9.32 8 10 C5.36 10 2.72 10 0 10 C0 6.7 0 3.4 0 0 Z " fill="#000000" transform="translate(39,7)"/>
<path d="M0 0 C3.375 -0.125 3.375 -0.125 7 0 C7.66 0.66 8.32 1.32 9 2 C8.625 4.125 8.625 4.125 8 6 C6.35 6.33 4.7 6.66 3 7 C3 7.99 3 8.98 3 10 C2.01 10 1.02 10 0 10 C0 6.7 0 3.4 0 0 Z M3 2 C3 2.99 3 3.98 3 5 C4.32 4.67 5.64 4.34 7 4 C6.67 3.34 6.34 2.68 6 2 C5.01 2 4.02 2 3 2 Z " fill="#000000" transform="translate(53,7)"/>
<path d="M0 0 C0.99 0 1.98 0 3 0 C3 2.64 3 5.28 3 8 C4.65 8 6.3 8 8 8 C8 8.66 8 9.32 8 10 C5.36 10 2.72 10 0 10 C0 6.7 0 3.4 0 0 Z " fill="#000000" transform="translate(100,7)"/>
</svg>